<?xml version="1.0" encoding="UTF-8"?>
<!-- Generator: Adobe Illustrator 23.0.1, SVG Export Plug-In . SVG Version: 6.00 Build 0)  -->
<svg version="1.1" id="Layer_1" xmlns="http://www.w3.org/2000/svg" xmlns:xlink="http://www.w3.org/1999/xlink" x="0px" y="0px" viewBox="0 0 184.7 40.8" style="enable-background:new 0 0 184.7 40.8;" xml:space="preserve">
<style type="text/css">
	.st0{display:none;}
	.st1{display:inline;fill:#636363;}
	.st2{fill:#F08C21;}
	.st3{fill:#FFFFFF;}
	.st4{enable-background:new    ;}
</style>
<g class="st0">
	<rect y="0.4" class="st1" width="184.7" height="40.4"/>
</g>
<g>
	<g>
		<g>
			<g>
				<ellipse class="st2" cx="22.3" cy="20.4" rx="20.6" ry="20"/>
				<g>
					<path class="st3" d="M32.1,24.5c-0.4,3.8-3.3,4.9-7.5,5.1v4h-2.5v-4c-0.6,0-1.3,0-2,0v4h-2.5v-4c-0.6,0-1.2,0-1.8,0h-3.3l0.3-2       l0.1-0.9H20c0.1,0,0.3,0,0.4,0s0.3,0,0.4,0c2.2,0,6.1-0.1,6.1-2.7c0-1-0.5-1.6-1.2-2c1-0.2,1.9-0.5,2.6-0.9       c0.4-0.2,0.8-0.5,1.2-0.9c0.1-0.1,0.2-0.2,0.3-0.3C31.4,20.7,32.3,22.1,32.1,24.5z"/>
				</g>
				<g>
					<g>
						<g>
							<path class="st3" d="M30.6,15.4c0-0.2-0.1-0.5-0.1-0.7c-0.6-2.3-3-3.2-5.9-3.4v-4h-2.5v3.9c-0.7,0-1.3,0-2,0V7.3h-2.5v4         c-0.4,0-0.8,0-1.1,0c-0.1,0-0.3,0-0.4,0l0,0h-3.4v2.6c0,0,0.8,0,1.3,0c0.3,0,0.5,0,0.5,0c1,0,1.3,0.6,1.4,1.1v4.5v6.3h4.3         v-4.5l0,0l0,0c0.2,0,1.2,0.1,2.5,0.1c0.4,0,0.7,0,1.1,0c1.4-0.1,3-0.4,4.2-1.1c0.3-0.2,0.7-0.4,1-0.7         C30.1,18.6,30.8,17,30.6,15.4z M21.2,18.9c-0.4,0-0.8,0-1.1,0v-4.8c0.3,0,0.8,0,1.4,0c1.9,0,4.5,0.3,4.5,2.5         C26,18.7,23.1,18.9,21.2,18.9z"/>
						</g>
					</g>
				</g>
			</g>
		</g>
	</g>
	<g id="Layer_4">
		<g class="st4">
			<path class="st3" d="M62.1,10c1.5,0,2.7,0.1,3.5,0.4c0.9,0.3,1.5,0.8,1.9,1.4c0.3,0.7,0.4,1.6,0.3,2.9c-0.2,1.2-0.5,2.1-1,2.8     c-0.5,0.6-1.4,1-2.5,1.1l0,0.1c1.4,0.1,2.3,0.6,2.7,1.4c0.4,0.8,0.6,2,0.4,3.4c-0.2,1.2-0.5,2.1-1,2.7c-0.5,0.6-1.2,1.1-2,1.3     s-2,0.4-3.4,0.4c-1.2,0-2.2,0-3,0s-1.7,0-2.4-0.1s-1.4-0.1-2.2-0.1l0.6-2.7c0.4,0,1.2,0,2.3,0.1c1.1,0,2.4,0,3.9,0     c0.7,0,1.3-0.1,1.8-0.2s0.8-0.4,1-0.8s0.4-0.9,0.5-1.6c0.1-0.7,0.1-1.2,0-1.6c-0.1-0.4-0.3-0.6-0.7-0.8c-0.4-0.1-0.9-0.2-1.6-0.2     h-6.4l0.4-2.5h6.1c0.6,0,1.2-0.1,1.5-0.2s0.7-0.4,0.9-0.7c0.2-0.4,0.4-0.9,0.4-1.5c0.1-0.6,0.1-1,0-1.3c-0.1-0.3-0.3-0.5-0.7-0.6     C63,13,62.6,12.9,62,12.9c-1,0-1.8,0-2.6,0c-0.7,0-1.4,0-2,0c-0.6,0-1.1,0-1.6,0.1l-0.1-2.7c0.7-0.1,1.3-0.1,1.9-0.1     c0.6,0,1.3,0,2-0.1C60.4,10.1,61.2,10,62.1,10z M59.5,10.3L57,27.8h-3.8l2.5-17.5H59.5z"/>
			<path class="st3" d="M74.8,15.2L73,27.8h-3.7l1.8-12.5H74.8z M74.4,9.7c0.4,0,0.7,0.1,0.9,0.3c0.2,0.2,0.2,0.5,0.2,0.9l-0.2,1.3     c-0.1,0.7-0.5,1.1-1.2,1.1h-1.5c-0.8,0-1.2-0.4-1.1-1.2l0.2-1.3c0.1-0.7,0.5-1.1,1.2-1.1H74.4z"/>
			<path class="st3" d="M86.3,15.2L86,17.7h-9.4l0.3-2.3l2.4-0.1H86.3z M83.3,11.8l-1.7,12.1c-0.1,0.5,0,0.8,0.1,0.9     c0.2,0.2,0.5,0.3,1,0.3h1.7l0.2,2.6c-0.3,0.1-0.7,0.2-1.2,0.3C83,27.9,82.5,28,82.1,28s-0.8,0.1-1,0.1c-1.2,0-2.1-0.3-2.7-1     c-0.6-0.6-0.8-1.5-0.6-2.6l1.9-12.8H83.3z"/>
			<path class="st3" d="M93.8,14.9c0.8,0,1.6,0.1,2.5,0.2s1.7,0.3,2.4,0.6L98.2,18c-0.7,0-1.5-0.1-2.1-0.1c-0.7,0-1.3,0-1.7,0     c-0.7,0-1.4,0.1-1.8,0.3s-0.8,0.6-1.1,1.1s-0.4,1.2-0.6,2.2c-0.1,1-0.2,1.7-0.1,2.2s0.4,0.9,0.7,1s1,0.3,1.7,0.3     c0.3,0,0.7,0,1.1,0s0.9,0,1.4-0.1s1-0.1,1.5-0.1l0.3,2.4c-0.7,0.3-1.5,0.5-2.4,0.6c-0.9,0.1-1.7,0.2-2.5,0.2     c-1.5,0-2.7-0.2-3.6-0.7s-1.5-1.2-1.9-2.2c-0.3-1-0.4-2.3-0.2-3.9c0.2-1.6,0.6-2.8,1.1-3.7c0.5-0.9,1.2-1.6,2.2-2.1     S92.3,14.9,93.8,14.9z"/>
			<path class="st3" d="M106.9,14.9c1.5,0,2.8,0.2,3.7,0.7c0.9,0.4,1.6,1.2,1.9,2.1c0.3,1,0.4,2.3,0.1,4c-0.2,1.6-0.6,2.8-1.1,3.8     c-0.5,0.9-1.3,1.6-2.2,2c-1,0.4-2.2,0.6-3.8,0.6c-1.5,0-2.8-0.2-3.7-0.7c-0.9-0.4-1.6-1.2-1.9-2.1s-0.4-2.3-0.2-3.9     c0.2-1.6,0.6-2.9,1.1-3.8c0.5-0.9,1.3-1.6,2.3-2C104.1,15.1,105.4,14.9,106.9,14.9z M106.9,17.6c-0.7,0-1.2,0.1-1.6,0.3     c-0.4,0.2-0.7,0.6-1,1.2c-0.2,0.6-0.4,1.4-0.6,2.5c-0.1,1-0.2,1.7-0.1,2.3s0.3,0.9,0.6,1.1s0.8,0.3,1.5,0.3     c0.7,0,1.2-0.1,1.6-0.3s0.7-0.6,1-1.2c0.2-0.6,0.4-1.4,0.6-2.4c0.1-1,0.2-1.8,0.1-2.3c-0.1-0.5-0.3-0.9-0.6-1.1     C108,17.8,107.5,17.6,106.9,17.6z"/>
			<path class="st3" d="M119.9,15.2l-1.8,12.5h-3.7l1.8-12.5H119.9z M119.5,9.7c0.4,0,0.7,0.1,0.9,0.3s0.2,0.5,0.2,0.9l-0.2,1.3     c-0.1,0.7-0.5,1.1-1.2,1.1h-1.5c-0.8,0-1.2-0.4-1.1-1.2l0.2-1.3c0.1-0.7,0.5-1.1,1.2-1.1H119.5z"/>
			<path class="st3" d="M126,15.2v3.3l0.3,0.4l-1.2,8.9h-3.8l1.8-12.5H126z M131.8,14.9c0.7,0,1.3,0.1,1.8,0.4     c0.5,0.3,0.9,0.7,1.1,1.2c0.2,0.5,0.3,1.2,0.2,2l-1.3,9.3h-3.8l1.2-8.2c0.1-0.6,0.1-1-0.1-1.2c-0.1-0.2-0.5-0.3-0.9-0.3     c-0.6,0-1.1,0.2-1.8,0.5s-1.4,0.9-2.2,1.6l-0.4-1.9c1-1.1,2-1.9,3.1-2.5S130.7,14.9,131.8,14.9z"/>
			<path class="st3" d="M143.1,10.3l-2.5,17.5h-3.9l2.5-17.5H143.1z M145.7,10c1.6,0,2.8,0.2,3.7,0.5c0.9,0.4,1.5,1,1.9,1.8     c0.3,0.9,0.4,2,0.2,3.5c-0.2,1.5-0.5,2.6-1,3.4c-0.5,0.8-1.2,1.4-2,1.7c-0.9,0.3-2,0.5-3.5,0.5c-0.8,0-1.5,0-2.2-0.1     c-0.7-0.1-1.4-0.2-2-0.3c-0.6-0.1-1.2-0.2-1.6-0.3c-0.4-0.1-0.7-0.2-0.9-0.3l0.2-1.9c1,0,2.1,0,3.2,0c1.1,0,2.2,0,3.2,0     c0.7,0,1.2-0.1,1.6-0.2s0.7-0.4,0.9-0.9c0.2-0.4,0.4-1,0.5-1.9c0.1-0.7,0.1-1.2,0-1.6c-0.1-0.4-0.3-0.7-0.6-0.8     c-0.3-0.2-0.8-0.2-1.4-0.2c-1.6,0-2.9,0-4,0c-1.1,0-1.9,0.1-2.3,0.1l-0.1-2.8c0.7-0.1,1.3-0.1,2-0.2c0.6,0,1.3-0.1,2-0.1     C143.9,10,144.7,10,145.7,10z"/>
			<path class="st3" d="M159.7,14.9c1.5,0,2.8,0.2,3.7,0.7c0.9,0.4,1.6,1.2,1.9,2.1c0.3,1,0.4,2.3,0.1,4c-0.2,1.6-0.6,2.8-1.1,3.8     c-0.5,0.9-1.3,1.6-2.2,2c-1,0.4-2.2,0.6-3.8,0.6c-1.5,0-2.8-0.2-3.7-0.7c-0.9-0.4-1.6-1.2-1.9-2.1s-0.4-2.3-0.2-3.9     c0.2-1.6,0.6-2.9,1.1-3.8c0.5-0.9,1.3-1.6,2.3-2C156.9,15.1,158.1,14.9,159.7,14.9z M159.6,17.6c-0.7,0-1.2,0.1-1.6,0.3     c-0.4,0.2-0.7,0.6-1,1.2c-0.2,0.6-0.4,1.4-0.6,2.5c-0.1,1-0.2,1.7-0.1,2.3s0.3,0.9,0.6,1.1s0.8,0.3,1.5,0.3     c0.7,0,1.2-0.1,1.6-0.3s0.7-0.6,1-1.2c0.2-0.6,0.4-1.4,0.6-2.4c0.1-1,0.2-1.8,0.1-2.3c-0.1-0.5-0.3-0.9-0.6-1.1     C160.7,17.8,160.3,17.6,159.6,17.6z"/>
			<path class="st3" d="M175.3,9.9c0.9,0,1.9,0.1,2.9,0.2c1,0.1,2,0.3,2.9,0.5l-0.4,2.6c-0.5,0-1.1,0-1.7,0s-1.2,0-1.9,0s-1.3,0-2,0     c-0.4,0-0.8,0-1.1,0c-0.3,0-0.6,0.1-0.8,0.2s-0.4,0.3-0.5,0.5c-0.1,0.2-0.2,0.5-0.3,0.9c0,0.3,0,0.6,0,0.9     c0.1,0.2,0.2,0.4,0.4,0.6c0.2,0.2,0.5,0.3,1,0.5l3.2,1.3c0.9,0.4,1.6,0.8,2.1,1.3c0.5,0.5,0.8,1,0.9,1.7c0.1,0.6,0.1,1.4,0,2.2     c-0.2,1.3-0.5,2.3-1,3c-0.5,0.7-1.2,1.2-2.2,1.4c-0.9,0.3-2.2,0.4-3.7,0.4c-0.6,0-1.5,0-2.6-0.1c-1.1-0.1-2.3-0.3-3.5-0.5     l0.4-2.7c1,0,1.9,0,2.6,0.1c0.7,0,1.3,0,1.8,0.1c0.5,0,0.9,0,1.2,0c0.7,0,1.3,0,1.8-0.1c0.4-0.1,0.8-0.3,1-0.5     c0.2-0.2,0.4-0.6,0.4-1.1c0.1-0.4,0-0.7,0-0.9c-0.1-0.2-0.2-0.4-0.4-0.5c-0.2-0.1-0.5-0.3-0.9-0.4l-3.4-1.4     c-0.9-0.4-1.6-0.8-2.1-1.3c-0.5-0.5-0.8-1.1-0.9-1.7c-0.1-0.6-0.2-1.3-0.1-2.1c0.1-1,0.3-1.8,0.7-2.4c0.3-0.6,0.8-1.1,1.4-1.4     c0.6-0.3,1.3-0.6,2.1-0.7C173.3,10,174.3,9.9,175.3,9.9z"/>
		</g>
	</g>
	<g id="Layer_3">
	</g>
</g>
</svg>